<svg width="512" height="512" viewBox="0 0 512 512" fill="none" xmlns="http://www.w3.org/2000/svg">
<circle cx="256" cy="256" r="256" fill="#016A88"/>
<path d="M290.198 156.2C305.307 165.674 315.902 181.705 317.831 200.313C323.993 203.192 330.832 204.848 338.083 204.848C364.554 204.848 386.009 183.393 386.009 156.926C386.009 130.455 364.554 109 338.083 109C311.865 109.008 290.597 130.08 290.198 156.2ZM258.8 254.328C285.271 254.328 306.726 232.869 306.726 206.402C306.726 179.935 285.267 158.48 258.8 158.48C232.333 158.48 210.866 179.939 210.866 206.406C210.866 232.873 232.333 254.328 258.8 254.328ZM279.13 257.595H238.463C204.626 257.595 177.099 285.126 177.099 318.962V368.695L177.225 369.474L180.651 370.546C212.942 380.636 240.995 384 264.085 384C309.185 384 335.326 371.142 336.937 370.322L340.138 368.703H340.481V318.962C340.493 285.126 312.966 257.595 279.13 257.595ZM358.42 208.119H318.067C317.631 224.264 310.739 238.803 299.838 249.259C329.914 258.202 351.92 286.092 351.92 319.036V334.361C391.763 332.901 414.723 321.609 416.236 320.85L419.437 319.227H419.78V269.478C419.78 235.646 392.253 208.119 358.42 208.119ZM174.705 204.856C184.081 204.856 192.804 202.12 200.193 197.459C202.542 182.137 210.756 168.749 222.489 159.63C222.537 158.733 222.623 157.844 222.623 156.938C222.623 130.467 201.164 109.012 174.705 109.012C148.23 109.012 126.779 130.467 126.779 156.938C126.779 183.397 148.23 204.856 174.705 204.856ZM217.746 249.259C206.898 238.856 200.03 224.395 199.529 208.347C198.032 208.237 196.552 208.119 195.026 208.119H154.364C120.527 208.119 93 235.646 93 269.478V319.219L93.1264 319.986L96.552 321.066C122.456 329.153 145.575 332.881 165.656 334.055V319.036C165.664 286.092 187.661 258.21 217.746 249.259Z" fill="white"/>
</svg>
