<?xml version="1.0" encoding="UTF-8" standalone="no"?>
<svg
   viewBox="0 0 636.41705 876.92938"
   version="1.1"
   id="svg310"
   sodipodi:docname="precredenciado.svg"
   width="636.41705"
   height="876.92938"
   inkscape:version="1.2.1 (9c6d41e410, 2022-07-14)"
   xmlns:inkscape="http://www.inkscape.org/namespaces/inkscape"
   xmlns:sodipodi="http://sodipodi.sourceforge.net/DTD/sodipodi-0.dtd"
   xmlns="http://www.w3.org/2000/svg"
   xmlns:svg="http://www.w3.org/2000/svg">
  <defs
     id="defs314" />
  <sodipodi:namedview
     id="namedview312"
     pagecolor="#ffffff"
     bordercolor="#000000"
     borderopacity="0.25"
     inkscape:showpageshadow="2"
     inkscape:pageopacity="0.0"
     inkscape:pagecheckerboard="0"
     inkscape:deskcolor="#d1d1d1"
     showgrid="false"
     inkscape:zoom="0.41748047"
     inkscape:cx="662.30643"
     inkscape:cy="493.43626"
     inkscape:window-width="1920"
     inkscape:window-height="1009"
     inkscape:window-x="1912"
     inkscape:window-y="-8"
     inkscape:window-maximized="1"
     inkscape:current-layer="svg310" />
  <!--!Font Awesome Free 6.5.2 by @fontawesome - https://fontawesome.com License - https://fontawesome.com/license/free Copyright 2024 Fonticons, Inc.-->
  <path
     d="m 108.58046,172.22988 c 0,-23.94962 20.12054,-43.38045 44.92029,-43.38045 h 89.8406 c 24.79975,0 44.9203,19.43083 44.9203,43.38045 v 86.7609 c 0,23.94963 -20.12055,43.38045 -44.9203,43.38045 h -89.8406 c -24.79975,0 -44.92029,-19.43082 -44.92029,-43.38045 z m 59.89372,14.46015 v 57.8406 h 59.89374 v -57.8406 z m -59.89372,216.90226 c 0,-23.94963 20.12054,-43.38045 44.92029,-43.38045 h 89.8406 c 24.79975,0 44.9203,19.43082 44.9203,43.38045 v 86.7609 c 0,23.94962 -20.12055,43.38045 -44.9203,43.38045 h -89.8406 c -24.79975,0 -44.92029,-19.43083 -44.92029,-43.38045 z m 59.89372,14.46015 v 57.8406 h 59.89374 v -57.8406 z M 393.07569,128.84943 h 89.8406 c 24.79975,0 44.9203,19.43083 44.9203,43.38045 v 86.7609 c 0,23.94963 -20.12055,43.38045 -44.9203,43.38045 h -89.8406 c -24.79975,0 -44.9203,-19.43082 -44.9203,-43.38045 v -86.7609 c 0,-23.94962 20.12055,-43.38045 44.9203,-43.38045 z m 74.86717,57.8406 h -59.89374 v 57.8406 h 59.89374 z M 348.15539,374.67199 c 0,-7.95309 6.73804,-14.46015 14.97343,-14.46015 h 59.89374 c 8.23538,0 14.97343,6.50706 14.97343,14.46015 0,7.95308 6.73804,14.46015 14.97343,14.46015 h 29.94687 c 8.23539,0 14.97343,-6.50707 14.97343,-14.46015 0,-7.95309 6.73805,-14.46015 14.97344,-14.46015 8.23539,0 14.97343,6.50706 14.97343,14.46015 v 86.7609 c 0,7.95308 -6.73804,14.46015 -14.97343,14.46015 h -59.89374 c -8.23539,0 -14.97343,-6.50707 -14.97343,-14.46015 0,-7.95308 -6.73805,-14.46015 -14.97343,-14.46015 -8.23539,0 -14.97344,6.50707 -14.97344,14.46015 v 57.8406 c 0,7.95308 -6.73804,14.46015 -14.97343,14.46015 h -29.94687 c -8.23539,0 -14.97343,-6.50707 -14.97343,-14.46015 z m 104.81403,159.06165 a 14.973434,14.46015 0 1 1 0,-28.9203 14.973434,14.46015 0 1 1 0,28.9203 z m 59.89374,0 a 14.973434,14.46015 0 1 1 0,-28.9203 14.973434,14.46015 0 1 1 0,28.9203 z"
     id="path308"
     style="stroke-width:0.91966" />
  <rect
     style="fill:none;stroke:#000000;stroke-width:43.1934"
     id="rect539"
     width="593.22363"
     height="833.73596"
     x="21.596701"
     y="21.596701"
     ry="48.982697" />
  <rect
     style="fill:none;stroke:#000000;stroke-width:33.6244"
     id="rect609"
     width="395.62405"
     height="13.368325"
     x="120.3965"
     y="646.25574"
     ry="6.6841626" />
  <rect
     style="fill:none;stroke:#000000;stroke-width:31.6401"
     id="rect609-2"
     width="305.03336"
     height="15.352559"
     x="165.69185"
     y="729.10413"
     ry="7.6762795" />
</svg>
