<?xml version="1.0" encoding="utf-8"?>
<!DOCTYPE svg PUBLIC "-//W3C//DTD SVG 1.0//EN" "http://www.w3.org/TR/2001/REC-SVG-20010904/DTD/svg10.dtd">
<svg version="1.0" xmlns="http://www.w3.org/2000/svg" width="1024px" height="896px" viewBox="0 0 1024 896" preserveAspectRatio="xMidYMid meet">
 <g fill="#ffffff">
  <path d="M501 894.1 c-10.4 -1.2 -22.5 -5 -32.6 -10.2 -20.5 -10.4 -30.1 -21 -49.9 -55.1 -3.2 -5.7 -9.9 -17 -14.8 -25.3 -10.1 -16.9 -14.5 -24.5 -27.2 -46 -4.9 -8.2 -13.1 -22.2 -18.3 -31 -5.3 -8.8 -11.6 -19.6 -14.2 -24 -18.1 -30.6 -35.2 -59.5 -40.2 -67.8 -3.3 -5.4 -6.9 -11.5 -8 -13.5 -1.1 -2 -6.6 -11.3 -12.1 -20.7 -5.5 -9.3 -14.2 -24 -19.2 -32.5 -5.1 -8.5 -13.8 -23.4 -19.5 -33 -5.7 -9.6 -13.6 -22.9 -17.5 -29.5 -3.9 -6.6 -11.1 -18.7 -16 -27 -4.8 -8.2 -15.3 -26 -23.3 -39.5 -8 -13.5 -16.6 -28.1 -19.2 -32.5 -2.6 -4.4 -12 -20.4 -21 -35.5 -8.9 -15.1 -18.4 -31.1 -21 -35.5 -2.6 -4.4 -8.9 -15.2 -14.2 -24 -5.2 -8.8 -13.4 -22.7 -18.3 -31 -11.4 -19.4 -16.2 -27.4 -28 -47.5 -5.4 -9.1 -11.9 -20.1 -14.5 -24.5 -2.6 -4.4 -11.3 -19 -19.2 -32.5 -21.9 -37 -23.6 -40 -25.9 -46.5 -4.9 -13.8 -5.3 -16.4 -5.3 -33.5 0.1 -15 0.3 -17.3 2.8 -25.5 10.6 -35 36.9 -59.9 71.6 -67.6 9.4 -2 864.5 -2.1 873 -0.1 20.3 5 35.4 13.4 47.7 26.6 7.9 8.4 11.6 13.8 16.4 24.1 13.2 28 12.6 59.9 -1.6 87.2 -3.5 6.9 -4.4 8.4 -13 22.8 -10.3 17.2 -20.9 35.1 -21.9 37 -0.6 1.1 -4.1 7 -7.7 13 -3.6 6.1 -8.8 14.8 -11.6 19.5 -2.7 4.7 -9.2 15.7 -14.5 24.5 -5.2 8.8 -13.4 22.8 -18.3 31 -15.4 26.2 -18.7 31.7 -26 44 -3.9 6.6 -10.5 17.6 -14.5 24.5 -4 6.9 -9.2 15.7 -11.5 19.5 -2.3 3.9 -7.5 12.6 -11.5 19.5 -4 6.9 -9 15.2 -11 18.5 -3.1 5 -13 21.9 -20 34 -1 1.7 -5.8 9.8 -10.7 18 -4.9 8.3 -12.9 21.8 -17.8 30 -15.2 25.8 -18.6 31.6 -26 44 -9.2 15.4 -28.1 47.5 -37.5 63.5 -4 6.9 -9 15.2 -11 18.5 -3.2 5.1 -14.3 24.1 -20 34 -0.9 1.7 -4.4 7.5 -7.7 13 -3.3 5.5 -12.6 21.3 -20.8 35 -8.1 13.8 -18.4 31.1 -22.8 38.5 -4.4 7.4 -10.1 17.1 -12.7 21.5 -2.6 4.4 -9.1 15.4 -14.5 24.5 -5.4 9.1 -10.6 17.9 -11.5 19.5 -22.1 38.7 -31.1 52 -41 61.3 -5.4 5.1 -17.6 13.1 -24.7 16.4 -14.3 6.4 -34.8 9.7 -50.3 7.9z m66.3 -273.2 c4.7 -1.3 10.2 -6 12.8 -11 1.8 -3.7 1.9 -6.6 1.9 -86.9 l0 -83 82.8 0 c77.8 0 82.9 -0.2 86.7 -1.9 5.1 -2.3 10.1 -7.9 11.4 -12.8 1.5 -5.2 1.5 -106.4 0 -111.6 -1.2 -4.4 -5.9 -10.1 -10.3 -12.5 -2.8 -1.6 -10.3 -1.7 -86.8 -2 l-83.8 -0.3 0 -83 c0 -80.6 -0.1 -83.1 -2 -86.8 -2.4 -4.9 -8.4 -9.8 -13.2 -11.2 -2.4 -0.6 -23.4 -0.9 -57 -0.7 l-53.3 0.3 -4.7 2.8 c-3.1 1.8 -5.7 4.4 -7.5 7.5 l-2.8 4.7 -0.3 83.2 -0.3 83.3 -83.2 0.2 -83.2 0.3 -4.7 2.8 c-3.1 1.8 -5.7 4.4 -7.5 7.5 l-2.8 4.7 0 55 0 55 2.8 4.8 c1.9 3.3 4.4 5.6 8 7.7 l5.2 3 82.7 0 82.7 0 0.3 83.3 0.3 83.2 2.7 4.7 c2.8 4.6 7.4 8.2 12.6 9.8 4.1 1.3 105.9 1.2 110.5 -0.1z"/>
 </g>
</svg>